<?xml version="1.0" encoding="UTF-8" standalone="no"?>
<!DOCTYPE svg PUBLIC "-//W3C//DTD SVG 1.1//EN" "http://www.w3.org/Graphics/SVG/1.1/DTD/svg11.dtd">
<svg width="100%" height="100%" viewBox="0 0 17412 4476" version="1.1" xmlns="http://www.w3.org/2000/svg" xmlns:xlink="http://www.w3.org/1999/xlink" xml:space="preserve" xmlns:serif="http://www.serif.com/" style="fill-rule:evenodd;clip-rule:evenodd;stroke-linejoin:round;stroke-miterlimit:2;">
    <g transform="matrix(1,0,0,1,11.0756,-408.031)">
        <g>
            <path d="M6325.56,4386.06L6197.41,4384.47L6197.67,4645.49L6225.66,4645.49L6226.1,4817.28L6230.31,4881.16L6265.2,4882.36L6300.3,4883.15L6297.17,4819.67L6297.81,4647.48L6311.17,4646.29L6324.74,4645.09L6325.56,4386.06Z" style="fill:rgb(136,136,136);fill-rule:nonzero;"/>
            <path d="M6361.03,4200.18L6160.77,4201.56L6161.35,4404.88L6179.22,4406.07L6196.88,4407.27L6325.03,4408.86L6342.9,4407.66L6360.57,4406.47L6361.03,4200.18Z" style="fill:rgb(98,98,98);fill-rule:nonzero;"/>
            <path d="M6471.27,1925.72L6079.91,1926.82L6049.3,2058.37C6049.3,2058.37 6080.3,3306.28 6080.3,3654.03L6065.31,3964.95L6089.28,4138.06L6132.73,4232.29L6379.92,4233.41L6440.02,4141.63L6473.3,3985.36L6458.54,3642.12L6499.58,2059.18L6471.27,1925.72L6471.27,1925.72L6471.27,1925.72Z" style="fill:rgb(98,98,98);fill-rule:nonzero;"/>
            <path d="M6119.18,1535.71C6119.18,1551.19 6104.5,1574.03 6104.5,1692.55L6104.25,1738L6282.79,1738L6283.04,1694.18C6283.04,1571.22 6267.71,1552.12 6267.71,1535.83L6267.71,1515.88L6192.64,1515.39L6119.18,1515.35L6119.18,1535.71Z" style="fill:rgb(136,136,136);fill-rule:nonzero;"/>
            <path d="M6273.94,1734.34L6095.4,1734.34L6039.13,1734.34C5963.19,1734.34 5907.6,1740.86 5832.11,1759.18C5793.01,1768.96 5787.36,1771.81 5783.75,1785.66C5780.13,1800.32 5780.58,1805.61 5787.14,1819.46C5794.37,1834.93 5799.34,1835.34 5838.21,1823.94C5963.87,1787.69 6070.99,1831.72 6083.88,1915.61C6084.03,1916.51 6092.11,1917.89 6092.11,1917.89L6466.04,1916.47L6466.04,1848.38L6524.8,1848.38L6524.8,1817.83C6524.8,1789.73 6524.35,1787.29 6519.83,1785.25C6516.89,1784.43 6487.28,1775.88 6453.61,1766.92C6420.16,1757.96 6375.41,1745.74 6354.62,1740.04C6333.6,1734.34 6322.69,1730.27 6322.24,1731.49C6321.57,1732.71 6321.79,1759.18 6322.69,1790.54L6324.28,1847.97L6333.54,1849.19L6336.09,1850.41L6336.09,1898.06L6324.11,1898.88L6312.36,1899.28L6312.36,1739.23L6305.35,1736.78C6301.51,1735.56 6292.7,1734.34 6286.14,1734.34L6273.94,1734.34Z" style="fill:rgb(98,98,98);fill-rule:nonzero;"/>
        </g>
        <g>
            <g transform="matrix(1,0,0,1,-218.342,4244.92)">
                <text x="0px" y="0px" style="font-family:'ArialMT', 'Arial', sans-serif;font-size:4613.93px;fill:rgb(98,98,98);">S</text>
            </g>
            <g transform="matrix(1,0,0,1,3023.51,4244.92)">
                <text x="0px" y="0px" style="font-family:'ArialMT', 'Arial', sans-serif;font-size:4613.93px;fill:rgb(98,98,98);">c</text>
            </g>
        </g>
        <g>
            <g transform="matrix(1,0,0,1,9920.06,4494.92)">
                <text x="0px" y="0px" style="font-family:'ArialMT', 'Arial', sans-serif;font-size:4613.93px;fill:rgb(57,154,143);">r</text>
            </g>
            <g transform="matrix(1,0,0,1,11538.6,4494.92)">
                <text x="0px" y="0px" style="font-family:'ArialMT', 'Arial', sans-serif;font-size:4613.93px;fill:rgb(57,154,143);">aw</text>
            </g>
        </g>
        <g>
            <path d="M10007.1,2700.48C10007.1,2543.14 9968.87,2336.03 9883.66,2137.95C9846.88,2052.44 9783.08,1931.05 9706.85,1830.73C9643.8,1747.74 9588.58,1685.93 9537.06,1641.89C9367.51,1496.98 9245.86,1421.73 9086.31,1324.79C8952.44,1243.44 8848.44,1175.14 8763.87,1069.37C8679.16,963.431 8564.52,842.787 8466.91,798.137C8359.45,748.984 8263.17,725.318 8137.24,725.318C8074.99,725.318 8015.69,735.46 7959.82,752.976C7959.82,752.976 7840.9,786.544 7756.64,833.471C7683.16,874.391 7643.19,928.997 7639.34,934.957C7634.74,942.089 7614.12,966.34 7611.91,980.192C7606.15,1016.37 7621.82,1060.7 7631.17,1116.28C7645.6,1202.14 7674.83,1310.2 7674.83,1310.2C7674.83,1310.2 7710.17,1461.29 7719.94,1497C7752.56,1616.24 7758.99,1622.08 7811.32,1674.73C7871.32,1735.09 8010.43,1768.23 8137.67,1762.72C8332.81,1754.29 8461.54,1692.33 8652.37,1702.53C8857.77,1713.51 9020.92,1767.06 9216.02,1958.34C9291.13,2031.97 9390.97,2147.1 9438.71,2241.41C9473.8,2310.72 9493,2379.17 9511.23,2455.5C9517.81,2483.01 9525.2,2521.98 9528.94,2550.7C9535.28,2599.34 9543.14,2734.89 9531.9,2885.69C9522.18,3016.04 9484.41,3157.41 9433.84,3262.56C9360.12,3415.87 9259.77,3552.63 9139.24,3668.59C8919.02,3880.47 8693.25,4021.2 8520.35,4069.25C8317.1,4125.72 8307.53,4142.43 8198.44,4170.74C8102.31,4195.7 7746.68,4259.77 7746.68,4259.77L7634.05,4293.08L9040.39,4293.5C9040.39,4293.5 9040.78,4268.07 9030.61,4254.64C9013.07,4231.48 8991.81,4197.46 9006.29,4184.07C9147.61,4053.37 9620.8,3859.8 9823.61,3485.66C9887.69,3367.45 9948.49,3227.03 9976.73,3075.4C9999.82,2951.47 10007.1,2817.92 10007.1,2700.48L10007.1,2700.48ZM8137.23,1647.26C7898.56,1647.26 7717.59,1462.86 7717.59,1239.29C7717.59,1015.72 7898.56,835.956 8137.23,835.956C8326.4,835.956 8487.15,950.276 8545.96,1108.85C8568.34,1169.18 8566.88,1362.12 8503.82,1456.42C8427.36,1570.74 8291.61,1647.26 8137.23,1647.26Z" style="fill:rgb(57,154,143);fill-rule:nonzero;"/>
            <path d="M8641.48,4317.49L7584.07,4315.88L7078.16,4486.77L7067.48,4512.21L9227.74,4514.64L9213.22,4466.84L9087.64,4318.14L8641.48,4317.49L8641.48,4317.49L8641.48,4317.49Z" style="fill:rgb(136,136,136);fill-rule:nonzero;"/>
            <g>
                <path d="M7855.91,2906.27L7392.57,897.45L7338.19,620.678C7337.28,616.62 7404.59,400.418 7365.49,408.238L6917.86,493.652C6878.76,501.471 7028.6,679.887 7029.51,683.945L7090.42,961.352L7526.55,2971.34C7526.55,2971.34 7623.75,2995.28 7710.74,2977.88C7797.72,2960.49 7855.91,2906.28 7855.91,2906.28L7855.91,2906.27Z" style="fill:rgb(57,154,143);fill-rule:nonzero;"/>
                <path d="M7917.14,2451.99L7562.75,864.84C7550.37,809.38 7495.12,772.857 7436.25,778.506L7025.22,860.711C6968.98,878.084 6934.06,932.641 6946.44,988.101L7300.83,2575.25C7313.92,2633.87 7374.47,2671.69 7437.12,2660.57L7828.49,2582.3C7890.44,2568.02 7930.23,2510.61 7917.14,2451.99Z" style="fill:rgb(98,98,98);fill-rule:nonzero;"/>
            </g>
        </g>
        <rect x="7168.24" y="3740.84" width="1596.12" height="132.239" style="fill:rgb(136,136,136);"/>
    </g>
</svg>
