<?xml version="1.0" encoding="UTF-8" standalone="no"?><!DOCTYPE svg PUBLIC "-//W3C//DTD SVG 1.1//EN" "http://www.w3.org/Graphics/SVG/1.1/DTD/svg11.dtd"><svg width="100%" height="100%" viewBox="0 0 448 512" version="1.1" xmlns="http://www.w3.org/2000/svg" xmlns:xlink="http://www.w3.org/1999/xlink" xml:space="preserve" xmlns:serif="http://www.serif.com/" style="fill-rule:evenodd;clip-rule:evenodd;stroke-linejoin:round;stroke-miterlimit:2;"><path d="M381.054,372.943l-82.542,-143.019l0,-114.567l5.634,0c9.367,0 16.903,-8.118 16.903,-18.209l0,-12.14c0,-10.091 -7.536,-18.209 -16.903,-18.209l-146.491,0c-9.367,0 -16.903,8.118 -16.903,18.209l0,12.14c0,10.091 7.536,18.209 16.903,18.209l5.634,0l0,114.567l-82.542,143.019c-20.636,35.736 3.169,82.322 42.328,82.322l215.652,0c39.229,0 62.963,-46.662 42.327,-82.322Zm-210.792,-63.353l33.946,-58.877c2.606,-3.945 4.085,-8.801 4.085,-13.96l0,-121.396l45.074,0l0,121.396c0,5.235 1.55,10.015 4.085,13.96l33.947,58.877l-121.137,0Z" style="fill:#5f6b7a;fill-rule:nonzero;"/></svg>