<?xml version="1.0" encoding="utf-8"?>
<!-- Generator: Adobe Illustrator 15.1.0, SVG Export Plug-In  -->
<!DOCTYPE svg PUBLIC "-//W3C//DTD SVG 1.1//EN" "http://www.w3.org/Graphics/SVG/1.1/DTD/svg11.dtd" [
	<!ENTITY ns_flows "http://ns.adobe.com/Flows/1.0/">
]>
<svg version="1.1"
	 xmlns="http://www.w3.org/2000/svg" xmlns:xlink="http://www.w3.org/1999/xlink" xmlns:a="http://ns.adobe.com/AdobeSVGViewerExtensions/3.0/"
	 x="0px" y="0px" width="334px" height="41px" viewBox="0 0 334 41" enable-background="new 0 0 334 41" xml:space="preserve">
<defs>
</defs>
<path fill="#1B1464" d="M60.134,1c0.169,0,0.32,0.017,0.48,0.025L60.634,1H60.134z"/>
<path fill="#1B1464" d="M50.634,1c-0.137,0-0.295,0-0.5,0c-4.436,0-11.559,2.681-14.791,6.889C29.242,15.834,20.475,27.25,15.291,34
	c-3.231,4.208-10.44,7-14.876,7h9.5h0.5c4.436,0,11.645-2.792,14.876-7c4.991-6.499,14.72-19.167,20.053-26.111
	C48.576,3.681,55.699,1,60.134,1H50.634L50.634,1z M50.274,1.023v0.002C50.274,1.024,50.274,1.024,50.274,1.023z"/>
<path fill="#1B1464" d="M0.02,40.863L0,40.889h0.5C0.331,40.889,0.181,40.872,0.02,40.863z"/>
<path fill="#1B1464" d="M87.134,1c0.169,0,0.32,0.017,0.48,0.025L87.634,1H87.134z"/>
<path fill="#B11812" d="M77.634,1c-0.137,0-0.295,0-0.5,0c-4.436,0-11.559,2.681-14.791,6.889C56.242,15.834,47.475,27.25,42.291,34
	c-3.231,4.208-10.44,7-14.876,7h9.5h0.5c4.436,0,11.645-2.792,14.876-7c4.991-6.499,14.72-19.167,20.053-26.111
	C75.576,3.681,82.699,1,87.134,1H77.634L77.634,1z M77.274,1.023v0.002C77.274,1.024,77.274,1.024,77.274,1.023z"/>
<path fill="#1B1464" d="M27.02,40.863L27,40.889h0.5C27.331,40.889,27.181,40.872,27.02,40.863z"/>
<path fill="#7971D0" d="M46.5,0c-0.169,0-0.32,0.017-0.48,0.025L46,0H46.5z"/>
<path fill="#7672A2" d="M59,1h-9.5c4.436,0,11.559,2.681,14.791,6.889C69.624,14.833,79.353,27.501,84.344,34
	c3.231,4.208,10.44,7,14.876,7h0.5h9.5c-4.436,0-11.645-2.792-14.876-7C89.16,27.25,80.393,15.834,74.291,7.889
	C71.059,3.681,63.936,1,59.5,1C59.296,1,59.137,1,59,1L59,1z M59.274,1.025V1.023C59.274,1.024,59.274,1.024,59.274,1.025z"/>
<path fill="#D07571" d="M76.5,0c-0.169,0-0.32,0.017-0.48,0.025L76,0H76.5z"/>
<path fill="#D07571" d="M86,1h-9.5c4.436,0,11.559,2.681,14.791,6.889c5.333,6.945,15.062,19.613,20.053,26.111
	c3.231,4.208,10.44,7,14.876,7h0.5h9.5c-4.436,0-11.645-2.792-14.876-7c-5.184-6.75-13.952-18.166-20.053-26.111
	C98.059,3.681,90.936,1,86.5,1C86.296,1,86.137,1,86,1L86,1z M86.274,1.025V1.023C86.274,1.024,86.274,1.024,86.274,1.025z"/>
<path fill="#1B1464" d="M159.134,1c0.169,0,0.32,0.017,0.48,0.025L159.634,1H159.134z"/>
<path fill="#1B1464" d="M149.634,1c-0.137,0-0.295,0-0.5,0c-4.436,0-11.559,2.681-14.791,6.889
	C128.242,15.834,119.475,27.25,114.291,34c-3.231,4.208-10.44,7-14.876,7h9.5h0.5c4.436,0,11.645-2.792,14.876-7
	c4.991-6.499,14.72-19.167,20.053-26.111C147.576,3.681,154.699,1,159.134,1H149.634L149.634,1z M149.274,1.023v0.002
	C149.274,1.024,149.274,1.024,149.274,1.023z"/>
<path fill="#1B1464" d="M99.02,40.863L99,40.889h0.5C99.331,40.889,99.181,40.872,99.02,40.863z"/>
<path fill="#1B1464" d="M186.134,1c0.169,0,0.32,0.017,0.48,0.025L186.634,1H186.134z"/>
<path fill="#B11812" d="M176.634,1c-0.137,0-0.295,0-0.5,0c-4.436,0-11.559,2.681-14.791,6.889
	C155.242,15.834,146.475,27.25,141.291,34c-3.231,4.208-10.44,7-14.876,7h9.5h0.5c4.436,0,11.645-2.792,14.876-7
	c4.991-6.499,14.72-19.167,20.053-26.111C174.576,3.681,181.699,1,186.134,1H176.634L176.634,1z M176.274,1.023v0.002
	C176.274,1.024,176.274,1.024,176.274,1.023z"/>
<path fill="#1B1464" d="M126.02,40.863L126,40.889h0.5C126.331,40.889,126.181,40.872,126.02,40.863z"/>
<path fill="#7971D0" d="M145.5,0c-0.169,0-0.32,0.017-0.48,0.025L145,0H145.5z"/>
<path fill="#7672A2" d="M158,1h-9.5c4.436,0,11.559,2.681,14.791,6.889c5.333,6.945,15.062,19.613,20.053,26.111
	c3.231,4.208,10.44,7,14.876,7h0.5h9.5c-4.436,0-11.645-2.792-14.876-7c-5.184-6.75-13.952-18.166-20.053-26.111
	C170.059,3.681,162.936,1,158.5,1C158.296,1,158.137,1,158,1L158,1z M158.274,1.025V1.023
	C158.274,1.024,158.274,1.024,158.274,1.025z"/>
<path fill="#7971D0" d="M175.5,0c-0.169,0-0.32,0.017-0.48,0.025L175,0H175.5z"/>
<path fill="#D07571" d="M185,1h-9.5c4.436,0,11.559,2.681,14.791,6.889c5.333,6.945,15.062,19.613,20.053,26.111
	c3.231,4.208,10.44,7,14.876,7h0.5h9.5c-4.436,0-11.645-2.792-14.876-7c-5.184-6.75-13.952-18.166-20.053-26.111
	C197.059,3.681,189.936,1,185.5,1C185.296,1,185.137,1,185,1L185,1z M185.274,1.025V1.023
	C185.274,1.024,185.274,1.024,185.274,1.025z"/>
<path fill="#1B1464" d="M258.134,1c0.169,0,0.32,0.017,0.48,0.025L258.634,1H258.134z"/>
<path fill="#1B1464" d="M248.634,1c-0.137,0-0.295,0-0.5,0c-4.436,0-11.559,2.681-14.791,6.889
	C227.242,15.834,218.475,27.25,213.291,34c-3.231,4.208-10.44,7-14.876,7h9.5h0.5c4.436,0,11.645-2.792,14.876-7
	c4.991-6.499,14.72-19.167,20.053-26.111C246.576,3.681,253.699,1,258.134,1H248.634L248.634,1z M248.274,1.023v0.002
	C248.274,1.024,248.274,1.024,248.274,1.023z"/>
<path fill="#1B1464" d="M198.02,40.863L198,40.889h0.5C198.331,40.889,198.181,40.872,198.02,40.863z"/>
<path fill="#1B1464" d="M285.134,1c0.169,0,0.32,0.017,0.48,0.025L285.634,1H285.134z"/>
<path fill="#B11812" d="M275.634,1c-0.137,0-0.295,0-0.5,0c-4.436,0-11.559,2.681-14.791,6.889
	C254.242,15.834,245.475,27.25,240.291,34c-3.231,4.208-10.44,7-14.876,7h9.5h0.5c4.436,0,11.645-2.792,14.876-7
	c4.991-6.499,14.72-19.167,20.053-26.111C273.576,3.681,280.699,1,285.134,1H275.634L275.634,1z M275.274,1.023v0.002
	C275.274,1.024,275.274,1.024,275.274,1.023z"/>
<path fill="#1B1464" d="M225.02,40.863L225,40.889h0.5C225.331,40.889,225.181,40.872,225.02,40.863z"/>
<path fill="#7971D0" d="M244.5,0c-0.169,0-0.32,0.017-0.48,0.025L244,0H244.5z"/>
<path fill="#7672A2" d="M257,1h-9.5c4.436,0,11.559,2.681,14.791,6.889c5.333,6.945,15.062,19.613,20.053,26.111
	c3.231,4.208,10.44,7,14.876,7h0.5h9.5c-4.436,0-11.645-2.792-14.876-7c-5.184-6.75-13.952-18.166-20.053-26.111
	C269.059,3.681,261.936,1,257.5,1C257.296,1,257.137,1,257,1L257,1z M257.274,1.025V1.023
	C257.274,1.024,257.274,1.024,257.274,1.025z"/>
<path fill="#7971D0" d="M274.5,0c-0.169,0-0.32,0.017-0.48,0.025L274,0H274.5z"/>
<path fill="#D07571" d="M284,1h-9.5c4.436,0,11.559,2.681,14.791,6.889c5.333,6.945,15.062,19.613,20.053,26.111
	c3.231,4.208,10.44,7,14.875,7h0.5h9.5c-4.436,0-11.645-2.792-14.875-7c-5.185-6.75-13.952-18.166-20.054-26.111
	C296.059,3.681,288.936,1,284.5,1C284.296,1,284.137,1,284,1L284,1z M284.274,1.025V1.023
	C284.274,1.024,284.274,1.024,284.274,1.025z"/>
</svg>
