<?xml version="1.0" encoding="UTF-8" standalone="no"?><!DOCTYPE svg PUBLIC "-//W3C//DTD SVG 1.1//EN" "http://www.w3.org/Graphics/SVG/1.1/DTD/svg11.dtd"><svg width="100%" height="100%" viewBox="0 0 425 448" version="1.1" xmlns="http://www.w3.org/2000/svg" xmlns:xlink="http://www.w3.org/1999/xlink" xml:space="preserve" xmlns:serif="http://www.serif.com/" style="fill-rule:evenodd;clip-rule:evenodd;stroke-linecap:round;stroke-linejoin:round;stroke-miterlimit:1.5;"><g><g><path d="M67.294,224.851c51.54,-60.702 103.081,-121.404 154.622,-182.106" style="fill:#5f6b7a;stroke:#5f6b7a;stroke-width:6.25px;"/><path d="M67.294,224.851c48.774,63.982 97.549,127.963 146.323,191.945" style="fill:#5f6b7a;stroke:#5f6b7a;stroke-width:6.25px;"/><path d="M67.294,224.851c49.593,22.788 99.187,45.575 148.781,68.363" style="fill:#5f6b7a;stroke:#5f6b7a;stroke-width:6.25px;"/><path d="M67.294,224.851c49.885,-22.034 99.77,-44.067 149.655,-66.101" style="fill:#5f6b7a;stroke:#5f6b7a;stroke-width:6.25px;"/><path d="M71.319,100.975c50.455,-18.878 100.91,-37.756 151.365,-56.635" style="fill:#5f6b7a;stroke:#5f6b7a;stroke-width:6.25px;"/><path d="M71.319,100.975c48.641,20.723 97.283,41.446 145.924,62.168" style="fill:#5f6b7a;stroke:#5f6b7a;stroke-width:6.25px;"/><path d="M70.496,347.577c48.954,22.486 97.907,44.972 146.861,67.458" style="fill:#5f6b7a;stroke:#5f6b7a;stroke-width:6.25px;"/><path d="M70.496,347.577c48.682,-61.278 97.364,-122.556 146.046,-183.834" style="fill:#5f6b7a;stroke:#5f6b7a;stroke-width:6.25px;"/><path d="M70.496,347.577c49.558,-100.719 99.116,-201.438 148.674,-302.157" style="fill:#5f6b7a;stroke:#5f6b7a;stroke-width:6.25px;"/><path d="M70.496,347.577c49.408,-18.658 98.816,-37.316 148.223,-55.973" style="fill:#5f6b7a;stroke:#5f6b7a;stroke-width:6.25px;"/><path d="M72.458,101.854c47.971,63.893 95.942,127.786 143.913,191.679" style="fill:#5f6b7a;stroke:#5f6b7a;stroke-width:6.25px;"/><path d="M72.458,101.854c47.304,102.637 94.608,205.275 141.912,307.913" style="fill:#5f6b7a;stroke:#5f6b7a;stroke-width:6.25px;"/><path d="M376.331,225.066c-51.54,-60.702 -103.081,-121.404 -154.622,-182.106" style="fill:#5f6b7a;stroke:#5f6b7a;stroke-width:6.25px;"/><path d="M376.331,225.066c-48.774,63.982 -97.549,127.963 -146.324,191.944" style="fill:#5f6b7a;stroke:#5f6b7a;stroke-width:6.25px;"/><path d="M376.331,225.066c-49.593,22.788 -99.187,45.575 -148.781,68.363" style="fill:#5f6b7a;stroke:#5f6b7a;stroke-width:6.25px;"/><path d="M376.331,225.066c-49.885,-22.034 -99.77,-44.068 -149.655,-66.101" style="fill:#5f6b7a;stroke:#5f6b7a;stroke-width:6.25px;"/><path d="M372.306,101.19c-50.455,-18.878 -100.91,-37.757 -151.365,-56.635" style="fill:#5f6b7a;stroke:#5f6b7a;stroke-width:6.25px;"/><path d="M372.306,101.19c-48.641,20.723 -97.283,41.445 -145.924,62.168" style="fill:#5f6b7a;stroke:#5f6b7a;stroke-width:6.25px;"/><path d="M373.129,347.792c-48.954,22.486 -97.907,44.972 -146.861,67.458" style="fill:#5f6b7a;stroke:#5f6b7a;stroke-width:6.25px;"/><path d="M373.129,347.792c-48.682,-61.278 -97.364,-122.556 -146.046,-183.834" style="fill:#5f6b7a;stroke:#5f6b7a;stroke-width:6.25px;"/><path d="M373.129,347.792c-49.558,-100.719 -99.116,-201.438 -148.674,-302.157" style="fill:#5f6b7a;stroke:#5f6b7a;stroke-width:6.25px;"/><path d="M373.129,347.792c-49.408,-18.658 -98.816,-37.316 -148.224,-55.974" style="fill:#5f6b7a;stroke:#5f6b7a;stroke-width:6.25px;"/><path d="M371.167,102.069c-47.971,63.893 -95.942,127.786 -143.913,191.679" style="fill:#5f6b7a;stroke:#5f6b7a;stroke-width:6.25px;"/><path d="M371.167,102.069c-47.304,102.637 -94.608,205.275 -141.912,307.913" style="fill:#5f6b7a;stroke:#5f6b7a;stroke-width:6.25px;"/></g><g><circle cx="52.241" cy="98.652" r="43.908" style="fill:#5f6b7a;stroke:#5f6b7a;stroke-width:16.67px;"/><circle cx="52.241" cy="224.635" r="43.908" style="fill:#5f6b7a;stroke:#5f6b7a;stroke-width:16.67px;"/><circle cx="52.241" cy="353.953" r="43.908" style="fill:#5f6b7a;stroke:#5f6b7a;stroke-width:16.67px;"/></g><g><circle cx="372.607" cy="95.945" r="43.908" style="fill:#5f6b7a;stroke:#5f6b7a;stroke-width:16.67px;"/><circle cx="372.607" cy="221.928" r="43.908" style="fill:#5f6b7a;stroke:#5f6b7a;stroke-width:16.67px;"/><circle cx="372.607" cy="351.246" r="43.908" style="fill:#5f6b7a;stroke:#5f6b7a;stroke-width:16.67px;"/></g><g><circle cx="209.733" cy="168.928" r="43.908" style="fill:#5f6b7a;stroke:#5f6b7a;stroke-width:16.67px;"/><circle cx="209.733" cy="52.241" r="43.908" style="fill:#5f6b7a;stroke:#5f6b7a;stroke-width:16.67px;"/><circle cx="209.733" cy="284.653" r="43.908" style="fill:#5f6b7a;stroke:#5f6b7a;stroke-width:16.67px;"/><circle cx="209.733" cy="394.95" r="43.908" style="fill:#5f6b7a;stroke:#5f6b7a;stroke-width:16.67px;"/></g></g></svg>